<svg xmlns="http://www.w3.org/2000/svg" xmlns:xlink="http://www.w3.org/1999/xlink" width="1920" height="993" viewBox="0 0 1920 993"><defs><style>.a{fill:url(#a);}.b,.e{fill:#fff;}.b{stroke:#707070;}.c{fill:url(#b);}.d{clip-path:url(#c);}.e{opacity:0.1;}.f{clip-path:url(#d);}</style><linearGradient id="a" x1="0.5" x2="0.5" y2="1" gradientUnits="objectBoundingBox"><stop offset="0" stop-color="#ff7379"/><stop offset="1" stop-color="#67a4f6"/></linearGradient><linearGradient id="b" x1="0.5" x2="0.5" y2="1" gradientUnits="objectBoundingBox"><stop offset="0" stop-color="#3065c5"/><stop offset="1" stop-color="#2a3795"/></linearGradient><clipPath id="c"><rect class="a" width="1920" height="993"/></clipPath><clipPath id="d"><rect class="b" width="769" height="471" transform="translate(54)"/></clipPath></defs><g transform="translate(0 0)"><path class="c" d="M1492.934,992.292h-.014a331.5,331.5,0,0,1-53.129-4.365c-9.378-1.529-18.918-3.487-28.354-5.819-9.76-2.413-19.687-5.295-29.5-8.567-10.136-3.379-20.438-7.267-30.619-11.558-10.5-4.424-21.163-9.4-31.7-14.791-10.854-5.553-21.873-11.7-32.75-18.268-11.186-6.755-22.546-14.152-33.766-21.987-81.533-56.941-171.832-85.812-268.388-85.812a505.616,505.616,0,0,0-62.476,3.944,551.19,551.19,0,0,0-57.634,10.4,608.544,608.544,0,0,0-96.44,31.554c-12.427,5.233-24.76,10.9-36.657,16.853-9.514,4.758-18.77,9.7-27.514,14.7-14.927,8.531-23.219,14.286-23.3,14.343-.22.117-5.437,2.891-14.527,6.912-8.553,3.784-22.412,9.494-39.865,15.208a459.63,459.63,0,0,1-59.626,15.207,409.422,409.422,0,0,1-73.811,6.912,362.658,362.658,0,0,1-39.41-2.127,337.032,337.032,0,0,1-40.808-7.021,318.153,318.153,0,0,1-83.233-32.552c-49.7-28.021-106.843-42.229-169.845-42.229A452.347,452.347,0,0,0,102.054,877V0h1920V846.111c-12.893-1.991-25.99-3.494-38.927-4.466-12.266-.921-24.7-1.389-36.956-1.389a492.048,492.048,0,0,0-49.744,2.529c-14.956,1.526-30.01,3.77-44.746,6.669A479.6,479.6,0,0,0,1779.2,869.69c-9.142,3.356-18.135,6.992-26.729,10.808-6.869,3.049-13.5,6.222-19.716,9.428-10.556,5.447-16.32,9.161-16.377,9.2a190.289,190.289,0,0,1-15.155,14.557c-5.787,5.07-12.01,10.09-18.5,14.921-8.106,6.038-16.646,11.793-25.381,17.1a323.753,323.753,0,0,1-70.222,32.026,310.347,310.347,0,0,1-94.187,14.558Z" transform="translate(-102.053)"/><g class="d"><path class="e" d="M2604.83,121.459s-221.621-122.676-410.3-.6-392.2-3.255-392.2-3.255-324.932-259.431-639.085-7.663S646.008,99.937,646.008,99.937s-223.127-165.806-513-5.76S117.385,92.1,117.385,92.1v299.3H2629.294" transform="translate(-230.974 741.569)"/><path class="e" d="M27.36,143.907S275.225-1.442,486.247,143.2s438.638-3.856,438.638-3.856,363.408-307.379,714.761-9.08,578.488-11.856,578.488-11.856,249.549-196.45,573.743-6.824,17.476-2.457,17.476-2.457V463.745H0Z" transform="translate(-542.32 661.873)"/></g><g class="f"><circle class="e" cx="384" cy="384" r="384" transform="translate(54.5 -297.5)"/></g></g></svg>