<svg xmlns="http://www.w3.org/2000/svg" xmlns:xlink="http://www.w3.org/1999/xlink" width="587" height="587" viewBox="0 0 587 587"><defs><style>.a,.b{fill:#fff;}.b{stroke:#3065c5;stroke-linejoin:bevel;stroke-miterlimit:10;stroke-width:2px;stroke-dasharray:6;}.c{clip-path:url(#c);}.d{fill:rgba(48,101,197,0.1);}.e{fill:#3065c5;}.f{fill:#f99d88;}.g{fill:#fad4c6;}.h{stroke:none;}.i{fill:none;}.j{filter:url(#a);}</style><filter id="a" x="0" y="0" width="587" height="587" filterUnits="userSpaceOnUse"><feOffset dy="20" input="SourceAlpha"/><feGaussianBlur stdDeviation="25" result="b"/><feFlood flood-color="#3065c5" flood-opacity="0.251"/><feComposite operator="in" in2="b"/><feComposite in="SourceGraphic"/></filter><clipPath id="c"><circle class="a" cx="218.5" cy="218.5" r="218.5" transform="translate(1222 5784)"/></clipPath></defs><g transform="translate(-1147 -5729)"><g class="j" transform="matrix(1, 0, 0, 1, 1147, 5729)"><g class="b" transform="translate(75 55)"><circle class="h" cx="218.5" cy="218.5" r="218.5"/><circle class="i" cx="218.5" cy="218.5" r="217.5"/></g></g><g class="c"><g transform="translate(1217.022 5867.125)"><path class="d" d="M381.841,292.151l-91.968,13.835L197.9,292.151V38.343l91.968-13.835,91.968,13.834Z" transform="translate(-73.058 -9.608)"/><g transform="translate(124.846)"><path class="e" d="M381.841,28.734H197.9V28.3A28.382,28.382,0,0,1,226.2,0h127.34a28.382,28.382,0,0,1,28.3,28.3v.436Z" transform="translate(-197.904)"/><path class="e" d="M381.841,465.173a28.382,28.382,0,0,1-28.3,28.3H226.2a28.382,28.382,0,0,1-28.3-28.3v-.436H381.841Z" transform="translate(-197.904 -182.194)"/></g><path class="e" d="M344.707,160.777a5.189,5.189,0,0,1-2.73-9.6,31.873,31.873,0,0,0-16.711-59.011,32.043,32.043,0,0,0-27.428,15.631,5.188,5.188,0,1,1-8.922-5.3,42.249,42.249,0,0,1,78.6,21.534A42.009,42.009,0,0,1,347.427,160,5.165,5.165,0,0,1,344.707,160.777Z" transform="translate(-108.453 -32.064)"/><g transform="translate(11.55 77.687)"><path class="f" d="M353.18,364.717l-20.549-.983-.983-20.549a15.225,15.225,0,0,1,21.532,21.532Z" transform="translate(-137.04 -210.48)"/><path class="f" d="M317.766,329.3l-20.548-.983-.983-20.548A15.225,15.225,0,0,1,317.766,329.3Z" transform="translate(-123.157 -196.596)"/><path class="f" d="M282.35,293.885,261.8,292.9l-.983-20.549a15.225,15.225,0,0,1,21.532,21.532Z" transform="translate(-109.272 -182.711)"/><path class="g" d="M163.1,217.426l63.65-63.65a15.225,15.225,0,1,0-21.532-21.532L102.258,235.2a61.218,61.218,0,0,0-17.447,52.908L11.55,361.373l90.726,10.6,33.2-33.2a61.218,61.218,0,0,0,52.909-17.447l39.306-39.306Z" transform="translate(-11.55 -127.783)"/></g></g></g></g></svg>