<svg xmlns="http://www.w3.org/2000/svg" xmlns:xlink="http://www.w3.org/1999/xlink" width="587" height="587" viewBox="0 0 587 587"><defs><style>.a,.b,.c,.d{fill:#fff;stroke-linejoin:bevel;stroke-miterlimit:10;stroke-width:2px;stroke-dasharray:6;}.a{stroke:#3065c5;}.b{stroke:#30c597;}.c{stroke:#de6969;}.d{stroke:#dec769;}.e{fill:#de6969;}.f{fill:#30c597;}.g{fill:#dec769;}.h{fill:#de9372;}.i,.j{fill:#000064;}.i{opacity:0.15;}.j{opacity:0.1;}.k{fill:#ffdda4;}.l{stroke:none;}.m{fill:none;}.n{filter:url(#a);}</style><filter id="a" x="0" y="0" width="587" height="587" filterUnits="userSpaceOnUse"><feOffset dy="20" input="SourceAlpha"/><feGaussianBlur stdDeviation="25" result="b"/><feFlood flood-color="#3065c5" flood-opacity="0.251"/><feComposite operator="in" in2="b"/><feComposite in="SourceGraphic"/></filter></defs><g transform="translate(-935 -1214)"><g class="n" transform="matrix(1, 0, 0, 1, 935, 1214)"><g class="a" transform="translate(75 55)"><circle class="l" cx="218.5" cy="218.5" r="218.5"/><circle class="m" cx="218.5" cy="218.5" r="217.5"/></g></g><g class="b" transform="translate(1010 1263)"><circle class="l" cx="63" cy="63" r="63"/><circle class="m" cx="63" cy="63" r="62"/></g><g class="c" transform="translate(947 1425)"><circle class="l" cx="63" cy="63" r="63"/><circle class="m" cx="63" cy="63" r="62"/></g><g class="d" transform="translate(1010 1574)"><circle class="l" cx="63" cy="63" r="63"/><circle class="m" cx="63" cy="63" r="62"/></g><path class="e" d="M48.176,53.038h-2.21V2.652A2.652,2.652,0,0,0,43.315,0H6.188A2.652,2.652,0,0,0,3.536,2.652V53.038H1.326A1.326,1.326,0,0,0,0,54.364v2.21H49.5v-2.21A1.326,1.326,0,0,0,48.176,53.038ZM14.144,8.4A1.326,1.326,0,0,1,15.47,7.072h4.42A1.326,1.326,0,0,1,21.215,8.4v4.42a1.326,1.326,0,0,1-1.326,1.326H15.47a1.326,1.326,0,0,1-1.326-1.326Zm0,10.608a1.326,1.326,0,0,1,1.326-1.326h4.42a1.326,1.326,0,0,1,1.326,1.326v4.42a1.326,1.326,0,0,1-1.326,1.326H15.47a1.326,1.326,0,0,1-1.326-1.326Zm5.746,16.353H15.47a1.326,1.326,0,0,1-1.326-1.326v-4.42a1.326,1.326,0,0,1,1.326-1.326h4.42a1.326,1.326,0,0,1,1.326,1.326v4.42A1.326,1.326,0,0,1,19.889,35.359Zm8.4,17.679H21.215V43.757a1.326,1.326,0,0,1,1.326-1.326h4.42a1.326,1.326,0,0,1,1.326,1.326Zm7.072-19.005a1.326,1.326,0,0,1-1.326,1.326h-4.42a1.326,1.326,0,0,1-1.326-1.326v-4.42a1.326,1.326,0,0,1,1.326-1.326h4.42a1.326,1.326,0,0,1,1.326,1.326Zm0-10.608a1.326,1.326,0,0,1-1.326,1.326h-4.42a1.326,1.326,0,0,1-1.326-1.326v-4.42a1.326,1.326,0,0,1,1.326-1.326h4.42a1.326,1.326,0,0,1,1.326,1.326Zm0-10.608a1.326,1.326,0,0,1-1.326,1.326h-4.42a1.326,1.326,0,0,1-1.326-1.326V8.4a1.326,1.326,0,0,1,1.326-1.326h4.42A1.326,1.326,0,0,1,35.359,8.4Z" transform="translate(985 1460)"/><path class="f" d="M23.678,27.061A13.531,13.531,0,1,0,10.148,13.531,13.529,13.529,0,0,0,23.678,27.061Zm10.127,3.446L28.752,50.739,25.37,36.363l3.383-5.92H18.6l3.383,5.92L18.6,50.739,13.552,30.507A14.182,14.182,0,0,0,0,44.651v4.4a5.075,5.075,0,0,0,5.074,5.074H42.283a5.075,5.075,0,0,0,5.074-5.074v-4.4A14.182,14.182,0,0,0,33.805,30.507Z" transform="translate(1049 1299)"/><path class="g" d="M10.507,39.231c-.94-.94-.45-.675-2.718-1.282a7.805,7.805,0,0,1-2.751-1.441L.13,48.542A1.731,1.731,0,0,0,1.8,50.926l5.7-.217,3.921,4.141a1.731,1.731,0,0,0,2.859-.537L19.91,40.506a7.764,7.764,0,0,1-9.4-1.275Zm30.906,9.311L36.5,36.508a7.788,7.788,0,0,1-2.751,1.441c-2.279.61-1.78.344-2.718,1.282a7.765,7.765,0,0,1-9.4,1.275l5.631,13.806a1.731,1.731,0,0,0,2.859.537l3.922-4.141,5.7.217a1.731,1.731,0,0,0,1.669-2.383Zm-12.96-11.76c1.653-1.682,1.842-1.537,4.2-2.179a4.4,4.4,0,0,0,3.08-3.135c.809-3.072.6-2.7,2.807-4.949a4.488,4.488,0,0,0,1.127-4.282c-.808-3.07-.809-2.642,0-5.715a4.488,4.488,0,0,0-1.127-4.282c-2.208-2.248-2-1.878-2.807-4.949a4.4,4.4,0,0,0-3.08-3.135C29.633,3.332,30,3.548,27.786,1.3A4.3,4.3,0,0,0,23.579.151c-3.015.822-2.594.823-5.615,0A4.3,4.3,0,0,0,13.757,1.3c-2.208,2.248-1.845,2.034-4.862,2.857a4.4,4.4,0,0,0-3.08,3.135c-.808,3.071-.6,2.7-2.807,4.949A4.485,4.485,0,0,0,1.88,16.522c.808,3.068.809,2.64,0,5.714a4.491,4.491,0,0,0,1.127,4.283c2.208,2.248,2,1.877,2.807,4.949A4.4,4.4,0,0,0,8.895,34.6c2.421.66,2.6.556,4.2,2.179a4.3,4.3,0,0,0,5.381.63,4.292,4.292,0,0,1,4.6,0A4.3,4.3,0,0,0,28.452,36.783ZM10.565,19.036A10.208,10.208,0,1,1,20.771,29.424,10.3,10.3,0,0,1,10.565,19.036Z" transform="translate(1051.785 1609.714)"/><g transform="translate(1141 1362)"><path class="h" d="M24.844,57.82A3.844,3.844,0,0,1,21,53.975V38.6A34.637,34.637,0,0,1,55.6,4H70.975a34.637,34.637,0,0,1,34.6,34.6V53.653a3.844,3.844,0,1,1-7.689,0V38.6a26.941,26.941,0,0,0-26.91-26.91H55.6A26.941,26.941,0,0,0,28.689,38.6V53.975A3.844,3.844,0,0,1,24.844,57.82Z" transform="translate(54.041 0)"/><path class="h" d="M132.7,116.951h99.951V32.377A15.377,15.377,0,0,0,217.279,17H17.377A15.377,15.377,0,0,0,2,32.377v84.574h99.951V101.574H132.7Z" transform="translate(0 36.975)"/><path class="h" d="M219.277,43v61.508H4V43H96.253V58.382h30.762V43Z" transform="translate(5.683 110.918)"/><path class="i" d="M73.2,57.82a3.844,3.844,0,0,1-3.844-3.844V38.6A34.637,34.637,0,0,1,103.957,4h15.377a34.637,34.637,0,0,1,34.6,34.6V53.653a3.844,3.844,0,1,1-7.689,0V38.6a26.941,26.941,0,0,0-26.91-26.91H103.957A26.941,26.941,0,0,0,77.047,38.6V53.975A3.844,3.844,0,0,1,73.2,57.82Zm146.074,96.1v61.508H4V153.915H96.253V169.3h30.762V153.915Z" transform="translate(5.683 0)"/><path class="j" d="M55.752,81.3H25V50.543L36.523,39,67.285,69.753Z" transform="translate(65.412 99.546)"/><path class="k" d="M27.991,69.748l.05-30.754L58.8,39.04l-.05,30.754Z" transform="translate(73.925 99.532)"/></g></g></svg>