<svg xmlns="http://www.w3.org/2000/svg" xmlns:xlink="http://www.w3.org/1999/xlink" width="249" height="281" viewBox="0 0 249 281"><defs><style>.a{fill:#2a3795;font-size:24px;font-family:Tajawal-Bold, Tajawal;font-weight:700;}.b{fill:url(#a);}.c{fill:url(#b);}.d{fill:#de6969;}</style><linearGradient id="a" x1="0.5" x2="0.5" y2="1" gradientUnits="objectBoundingBox"><stop offset="0" stop-color="#30c597"/><stop offset="1" stop-color="#fff"/></linearGradient><linearGradient id="b" x1="0.5" x2="0.5" y2="1" gradientUnits="objectBoundingBox"><stop offset="0" stop-color="#5a95ff"/><stop offset="1" stop-color="#2a3795"/></linearGradient></defs><g transform="translate(-721 -1536)"><text class="a" transform="translate(970 1562)"><tspan x="-212.088" y="0">PlansTec </tspan><tspan y="0">إستراتيجية</tspan></text><text class="a" transform="translate(845 1807)"><tspan x="-123.024" y="0">أوجد قيمتك</tspan></text><g transform="translate(752.279 1588.232)"><ellipse class="b" cx="52" cy="53" rx="52" ry="53" transform="translate(55.721 34.768)"/><path class="c" d="M210.213,105.749V76.429a10.469,10.469,0,1,0-6.93-19.756l-15.7-19.627a10.36,10.36,0,0,0,1.608-5.514,10.5,10.5,0,0,0-18.025-7.326L143.549,11.46a9.478,9.478,0,0,0,.1-.949,10.485,10.485,0,0,0-20.376-3.5H83.443a10.485,10.485,0,0,0-20.376,3.5,10.153,10.153,0,0,0,.13,1.272L45.819,20.471A10.477,10.477,0,0,0,29.636,33.549l-15.7,19.623a10.379,10.379,0,0,0-3.423-.62,10.485,10.485,0,0,0-3.5,20.376V95.242a10.481,10.481,0,1,0,12.578,15.072l19.126,3.479a10.5,10.5,0,0,0,10.339,8.829c.144,0,.273-.035.413-.042l6.685,16.712A10.478,10.478,0,1,0,71.6,153.228l30.067,8.591a10.474,10.474,0,0,0,6.94,9.207v25.817a10.511,10.511,0,1,0,7.007,0V171.026a10.422,10.422,0,0,0,2.936-18.11l4.183-12.549,31.437,10.479a10.482,10.482,0,0,0,6.986,9.666V196.84a10.511,10.511,0,1,0,7.007,0V160.516a10.348,10.348,0,0,0,6.324-13.492l26.882-22.4a10.413,10.413,0,0,0,5.336,1.5,10.485,10.485,0,0,0,3.5-20.376ZM59.542,111.915a10.153,10.153,0,0,0-.126-1.23l28.739-14.9,8.888,28.634Zm-7.82-9.929L46.867,64.751l24.009-1.2a10.5,10.5,0,0,0,9.291,6.474L86.05,88.982,56.21,104.453A10.535,10.535,0,0,0,51.722,101.987Zm-31.5-42.918a10.26,10.26,0,0,0-.809-1.528l15.7-19.623a10.63,10.63,0,0,0,1.23.382l2.589,19.833ZM43.29,37.354a10.484,10.484,0,0,0,5.763-9.326,10.154,10.154,0,0,0-.13-1.272L66.3,18.067a10.447,10.447,0,0,0,13.1,1.184l21.757,16.316L85.4,50.268a10.362,10.362,0,0,0-14.837,6.285l-24.608,1.23ZM123.512,14.7,106.356,30.715l-22.272-16.7h39.187C123.355,14.245,123.414,14.48,123.512,14.7Zm9.768,49.788-28.193,14.62L90.04,64.065a10.262,10.262,0,0,0,.172-8.7l16.635-15.527,26.812,20.11a10.4,10.4,0,0,0-.522,3.111A10.681,10.681,0,0,0,133.28,64.492ZM84.088,59.559a3.5,3.5,0,1,1-3.5-3.5A3.507,3.507,0,0,1,84.088,59.559ZM98.564,82.493l-6.2,3.213L88.131,72.06ZM94.476,92.506l9.284-4.814,16.414,16.414a10.313,10.313,0,0,0,3.02,12.746L118.31,131.5l-13.082-4.362Zm35.158,19.606a3.5,3.5,0,1,1,3.5-3.5A3.507,3.507,0,0,1,129.633,112.112Zm0-14.014a10.338,10.338,0,0,0-4.5,1.055L110.287,84.308l26.206-13.59a10.312,10.312,0,0,0,12.49,1.349l15.951,13.292-28.319,15.447A10.447,10.447,0,0,0,129.633,98.1ZM173.7,40.728a9.962,9.962,0,0,0,8.4.694l15.7,19.627a10.419,10.419,0,0,0-1.6,5.518,10.249,10.249,0,0,0,.168,1.65L171.552,81.754,153.474,66.689a10.21,10.21,0,0,0-.123-7.648Zm27.678,65.88L177.34,86.575l22.391-12.213a10.4,10.4,0,0,0,3.479,2.067v29.321A10.542,10.542,0,0,0,201.377,106.608ZM147.15,63.063a3.5,3.5,0,1,1-3.5-3.5A3.507,3.507,0,0,1,147.15,63.063Zm23.571,27.124,25.106,20.923-54.4-4.947Zm39.491-23.621a3.5,3.5,0,1,1-3.5-3.5A3.507,3.507,0,0,1,210.213,66.566ZM178.682,28.028a3.5,3.5,0,1,1-3.5,3.5A3.507,3.507,0,0,1,178.682,28.028Zm-10.416,2.554c-.028.319-.095.624-.095.949a10.458,10.458,0,0,0,.806,4.022L148.625,53.866a10.329,10.329,0,0,0-4.978-1.314,10.444,10.444,0,0,0-5.819,1.769L112.049,34.986,128.323,19.8a10.341,10.341,0,0,0,4.814,1.223,10.469,10.469,0,0,0,7.515-3.185ZM133.137,7.007a3.5,3.5,0,1,1-3.5,3.5A3.507,3.507,0,0,1,133.137,7.007Zm-59.559,0a3.5,3.5,0,1,1-3.5,3.5A3.507,3.507,0,0,1,73.577,7.007ZM38.542,24.524a3.5,3.5,0,1,1-3.5,3.5A3.507,3.507,0,0,1,38.542,24.524ZM10.514,59.559a3.5,3.5,0,1,1-3.5,3.5A3.507,3.507,0,0,1,10.514,59.559Zm0,49.049a3.5,3.5,0,1,1,3.5-3.5A3.507,3.507,0,0,1,10.514,108.608Zm3.5-13.369V72.925a10.484,10.484,0,0,0,6.516-6.86L39.846,65.1l4.884,37.452a10.514,10.514,0,0,0-4.751,4.344l-19.122-3.472A10.491,10.491,0,0,0,14.018,95.239Zm31.531,16.873a3.5,3.5,0,1,1,3.5,3.5A3.507,3.507,0,0,1,45.549,112.112Zm10.419,7.851a10.337,10.337,0,0,0,1.328-1.412l42.3,14.1,6.247,20.121a10.557,10.557,0,0,0-2.27,2.3l-30.067-8.591a10.493,10.493,0,0,0-10.444-9.848c-.14,0-.273.035-.41.042Zm7.1,30.687a3.5,3.5,0,1,1,3.5-3.5A3.507,3.507,0,0,1,63.067,150.65Zm49.049,59.559a3.5,3.5,0,1,1,3.5-3.5A3.507,3.507,0,0,1,112.116,210.209Zm0-45.545a3.5,3.5,0,1,1,3.5-3.5A3.507,3.507,0,0,1,112.116,164.664Zm.119-14.939-4.453-14.343,8.31,2.771ZM129.829,119.1a10.49,10.49,0,0,0,9.326-6.107l57.408,5.22c.091.35.2.694.319,1.03L170,141.642a10.32,10.32,0,0,0-13.576,2.568l-31.468-10.489Zm34.839,91.112a3.5,3.5,0,1,1,3.5-3.5A3.507,3.507,0,0,1,164.668,210.209Zm0-56.056a3.5,3.5,0,1,1,3.5-3.5A3.507,3.507,0,0,1,164.668,154.153Zm42.042-35.035a3.5,3.5,0,1,1,3.5-3.5A3.507,3.507,0,0,1,206.71,119.119Z" transform="translate(0 0.001)"/><g transform="translate(-0.279 -0.232)"><rect class="d" width="7" height="7" transform="translate(7)"/><rect class="d" width="7" height="8" transform="translate(7 14)"/><rect class="d" width="8" height="7" transform="translate(14 7)"/><rect class="d" width="7" height="7" transform="translate(0 7)"/><rect class="d" width="7" height="7" transform="translate(183 160)"/><rect class="d" width="7" height="7" transform="translate(183 176)"/><rect class="d" width="6" height="9" transform="translate(190 167)"/><rect class="d" width="7" height="9" transform="translate(176 167)"/><rect class="d" width="8" height="8" transform="translate(203 14)"/><rect class="d" width="8" height="7" transform="translate(203 28)"/><rect class="d" width="7" height="6" transform="translate(211 22)"/><rect class="d" width="7" height="6" transform="translate(196 22)"/><rect class="d" width="7" height="9" transform="translate(42 167)"/><rect class="d" width="7" height="7" transform="translate(42 183)"/><rect class="d" width="7" height="7" transform="translate(49 176)"/><rect class="d" width="6" height="7" transform="translate(36 176)"/><rect class="d" width="6" height="8" transform="translate(22 129)"/><rect class="d" width="6" height="8" transform="translate(22 144)"/><rect class="d" width="8" height="7" transform="translate(28 137)"/><rect class="d" width="8" height="7" transform="translate(14 137)"/></g></g></g></svg>