<svg xmlns="http://www.w3.org/2000/svg" xmlns:xlink="http://www.w3.org/1999/xlink" width="1930" height="1336" viewBox="0 0 1930 1336"><defs><style>.a,.d{fill:#fff;}.a{stroke:#707070;}.b{clip-path:url(#a);}.c{fill:url(#b);}.d{opacity:0.11;}</style><clipPath id="a"><rect class="a" width="1930" height="1336" transform="translate(0 3876)"/></clipPath><linearGradient id="b" x1="0.5" y1="1" x2="0.5" gradientUnits="objectBoundingBox"><stop offset="0" stop-color="#3065c5"/><stop offset="1" stop-color="#2a3795"/></linearGradient></defs><g class="b" transform="translate(0 -3876)"><path class="c" d="M772.384,1506.8h-.029c-34.967,0-66.775-2.928-97.242-8.947-11.888-2.348-23.875-5.222-36.647-8.784-11.274-3.145-21.642-6.39-31.669-9.529-16.151-5.055-31.407-9.83-46.933-13.013-24.122-4.946-56.99-11.265-97.376-16.279-21.121-2.623-42.6-4.659-63.835-6.052-24.218-1.589-48.92-2.395-73.418-2.395-17.267,0-34.839.4-52.229,1.188-18.492.838-37.317,2.14-55.952,3.87V259.949a279.229,279.229,0,0,0,35.418-11.886,341.559,341.559,0,0,0,38-18.517c9.082-5.12,18.345-9.944,27.533-14.336,8.974-4.29,18.135-8.294,27.227-11.9a410.827,410.827,0,0,1,105.727-26.466,452.049,452.049,0,0,1,50.861-2.822c17.08,0,35.035.931,53.367,2.769,16.459,1.65,33.358,4.011,51.663,7.218,33.856,5.93,66.438,13.715,97.947,21.242l.013,0,.064.015c12.377,2.957,24.068,5.75,35.815,8.432,21.9,5,43.782,11.354,66.95,18.08,31.6,9.176,64.28,18.664,101.215,25.992,20,3.968,39.16,6.893,58.575,8.942,10.579,1.116,21.333,1.971,31.963,2.542,11.206.6,22.648.906,34.008.907h.031c19.307,0,39.247-.88,59.266-2.616,21.315-1.848,43.462-4.73,65.825-8.567,23.61-4.05,48.237-9.3,73.2-15.6,26.192-6.609,53.572-14.584,81.382-23.7,26.731-8.765,52.644-16.435,77.018-22.8,23.179-6.05,45.643-11.093,66.766-14.989,19.969-3.683,39.338-6.45,57.571-8.226,17.1-1.665,33.733-2.51,49.43-2.51,9.52,0,18.945.31,28.013.922,8.586.579,17.118,1.446,25.357,2.578a333.311,333.311,0,0,1,43.879,9.01,374.558,374.558,0,0,1,36.644,12.287c11.271,4.4,21.639,8.938,31.665,13.329,16.154,7.073,31.408,13.753,46.935,18.205,15.908,4.562,29.734,8.237,43.512,11.566,18.31,4.424,35.93,8.089,53.868,11.2,21.127,3.669,42.6,6.517,63.837,8.465,24.224,2.223,48.926,3.35,73.419,3.35,20,0,40.378-.751,60.557-2.232,21.634-1.588,43.666-4.06,65.485-7.347v1188a345.771,345.771,0,0,0-43.551,8.609,404.645,404.645,0,0,0-47.734,15.95,537.586,537.586,0,0,1-108.274,31.006c-17,2.992-34.566,5.236-52.214,6.67-16.469,1.339-33.581,2.018-50.861,2.018-17.085,0-35.04-.665-53.366-1.979-16.459-1.18-33.358-2.868-51.663-5.16-33.864-4.241-66.448-9.806-97.959-15.189-12.4-2.117-24.1-4.117-35.882-6.04-21.893-3.574-43.779-8.117-66.951-12.927h-.006c-31.6-6.561-64.28-13.344-101.213-18.583-20-2.837-39.164-4.928-58.573-6.392-21.672-1.635-43.867-2.463-65.969-2.463-19.315,0-39.256.629-59.271,1.87-21.315,1.321-43.464,3.381-65.831,6.124-23.62,2.9-48.25,6.648-73.205,11.15-26.195,4.725-53.579,10.427-81.391,16.947-26.732,6.266-52.643,11.75-77.014,16.3-23.178,4.326-45.638,7.931-66.757,10.715-19.964,2.633-39.33,4.612-57.561,5.881C804.713,1506.193,788.084,1506.8,772.384,1506.8Z" transform="translate(-217.053 3705)"/><g transform="translate(0 -784)"><path class="d" d="M2604.83,269.947s-221.621,122.676-410.3.6-392.2,3.255-392.2,3.255S1477.4,533.23,1163.247,281.462s-517.239,10.007-517.239,10.007-223.127,165.806-513,5.76-15.625,2.074-15.625,2.074V0H2629.294" transform="translate(-323.974 4641.873)"/><path class="d" d="M27.36,319.838s247.864,145.349,458.887.707S924.886,324.4,924.886,324.4s363.408,307.379,714.762,9.08,578.488,11.856,578.488,11.856,249.549,196.45,573.743,6.824,17.476,2.457,17.476,2.457V0H0Z" transform="translate(-635.32 4649.23)"/></g><g transform="translate(-578.32 4988.574)"><path class="d" d="M24.464,121.459s221.621-122.676,410.3-.6,392.2-3.255,392.2-3.255,324.932-259.431,639.085-7.663,517.239-10.007,517.239-10.007,223.127-165.806,513-5.76,15.625-2.074,15.625-2.074v299.3H0" transform="translate(0 -27.502)"/><path class="d" d="M2913.28,102.107s-247.865-103.131-458.887-.5-438.638-2.736-438.638-2.736-363.408-218.1-714.762-6.442S722.5,84.015,722.5,84.015,472.956-55.374,148.761,79.172s-17.476-1.744-17.476-1.744V329.044H2940.64Z" transform="translate(0)"/></g></g></svg>