<svg xmlns="http://www.w3.org/2000/svg" xmlns:xlink="http://www.w3.org/1999/xlink" width="422" height="1373" viewBox="0 0 422 1373"><defs><style>.a,.g,.h{fill:#fff;}.b{clip-path:url(#a);}.c{opacity:0.5;}.d,.e,.f,.j{fill:none;}.d,.e,.f{stroke:#3065c5;stroke-linejoin:bevel;stroke-miterlimit:10;}.d,.e,.f,.g{stroke-width:2px;}.d{stroke-dasharray:6;}.e{stroke-dasharray:1 8;}.f{stroke-dasharray:1 6;}.g{stroke:#2a3795;}.i,.k{stroke:none;}.k{fill:#2a3795;}.l{filter:url(#f);}.m{filter:url(#d);}.n{filter:url(#b);}</style><clipPath id="a"><rect class="a" width="422" height="1373"/></clipPath><filter id="b" x="160.5" y="159.5" width="1050" height="1050" filterUnits="userSpaceOnUse"><feOffset dy="2" input="SourceAlpha"/><feGaussianBlur stdDeviation="9.5" result="c"/><feFlood flood-color="#fe787e" flood-opacity="0.686"/><feComposite operator="in" in2="c"/><feComposite in="SourceGraphic"/></filter><filter id="d" x="344.5" y="352.5" width="681" height="681" filterUnits="userSpaceOnUse"><feOffset dy="5" input="SourceAlpha"/><feGaussianBlur stdDeviation="6.5" result="e"/><feFlood flood-color="#fe787e"/><feComposite operator="in" in2="e"/><feComposite in="SourceGraphic"/></filter><filter id="f" x="-19.5" y="-17.5" width="1412" height="1412" filterUnits="userSpaceOnUse"><feOffset dy="2" input="SourceAlpha"/><feGaussianBlur stdDeviation="6.5" result="g"/><feFlood flood-color="#fe787e" flood-opacity="0.6"/><feComposite operator="in" in2="g"/><feComposite in="SourceGraphic"/></filter></defs><g class="b"><g class="c"><g class="n" transform="matrix(1, 0, 0, 1, 0, 0)"><g class="d" transform="translate(189 186)"><circle class="i" cx="496.5" cy="496.5" r="496.5"/><circle class="j" cx="496.5" cy="496.5" r="495.5"/></g></g><g class="m" transform="matrix(1, 0, 0, 1, 0, 0)"><g class="e" transform="translate(364 367)"><circle class="i" cx="321" cy="321" r="321"/><circle class="j" cx="321" cy="321" r="320"/></g></g><g class="l" transform="matrix(1, 0, 0, 1, 0, 0)"><g class="f"><circle class="i" cx="686.5" cy="686.5" r="686.5"/><circle class="j" cx="686.5" cy="686.5" r="685.5"/></g></g></g><g transform="translate(339.728 335.975)"><g class="g" transform="translate(218.272 238.025)"><ellipse class="i" cx="124.5" cy="128.5" rx="124.5" ry="128.5"/><ellipse class="j" cx="124.5" cy="128.5" rx="125.5" ry="129.5"/></g><g class="h" transform="translate(2654.416 140.497)"><path class="i" d="M -2267.75244140625 755.6826782226563 L -2267.75244140625 751.8673706054688 L -2267.75244140625 227.3195648193359 L -2267.75244140625 224.0327911376953 L -2265.921875 226.7626800537109 L -2143.944580078125 408.6659240722656 C -2142.05908203125 407.2250671386719 -2137.093505859375 403.2932739257813 -2130.46044921875 396.9935607910156 C -2125.47216796875 392.2558898925781 -2120.530517578125 387.1256713867188 -2115.773193359375 381.7454528808594 C -2109.82763671875 375.0217895507813 -2104.154541015625 367.8864440917969 -2098.91162109375 360.5375671386719 C -2085.57080078125 341.8387756347656 -2074.8984375 321.6614379882813 -2067.191650390625 300.5660095214844 C -2057.560546875 274.2040100097656 -2052.558349609375 246.3218994140625 -2052.32373046875 217.6942291259766 C -2051.779541015625 151.4153442382813 -2082.496337890625 80.54845428466797 -2134.490966796875 28.12512016296387 C -2182.27685546875 -20.05465888977051 -2242.09423828125 -46.58843612670898 -2302.92431640625 -46.58843612670898 C -2320.304443359375 -46.58843612670898 -2337.70703125 -44.97932434082031 -2354.649169921875 -41.80577087402344 C -2371.488525390625 -38.65143585205078 -2388.037109375 -33.92110443115234 -2403.8349609375 -27.74621391296387 C -2419.678955078125 -21.55321311950684 -2434.921142578125 -13.84743595123291 -2449.137451171875 -4.842658042907715 C -2463.520751953125 4.267897605895996 -2477.00439453125 14.80389785766602 -2489.213134765625 26.47245216369629 C -2514.63427734375 50.76856231689453 -2534.521484375 79.75345611572266 -2548.32177734375 112.6217880249023 C -2562.987060546875 147.549560546875 -2570.4228515625 186.1394500732422 -2570.4228515625 227.3195648193359 C -2570.4228515625 265.1530151367188 -2561.4560546875 301.7820129394531 -2543.77197265625 336.1891174316406 C -2535.864013671875 351.5751342773438 -2526.165771484375 366.5588989257813 -2514.94677734375 380.7242431640625 C -2504.515869140625 393.8943481445313 -2492.684814453125 406.4710083007813 -2479.7822265625 418.1048889160156 C -2456.34228515625 439.240234375 -2429.61328125 457.0804443359375 -2402.48486328125 469.6971130371094 C -2377.669189453125 481.2381286621094 -2354.106689453125 487.5944519042969 -2336.1376953125 487.5953369140625 C -2336.136962890625 487.5953369140625 -2336.135986328125 487.5953369140625 -2336.135498046875 487.5953369140625 C -2332.42431640625 487.5953369140625 -2328.958984375 487.3189086914063 -2325.834716796875 486.7734680175781 L -2324.66259765625 486.5689086914063 L -2324.66259765625 487.7585754394531 L -2324.66259765625 579.739013671875 L -2324.66259765625 580.837646484375 L -2325.75634765625 580.7345581054688 C -2325.80810546875 580.7296752929688 -2331.030517578125 580.23046875 -2339.95068359375 578.7669067382813 C -2348.172607421875 577.4180297851563 -2361.32275390625 574.9485473632813 -2377.279296875 570.8446655273438 C -2395.212158203125 566.2325439453125 -2412.964599609375 560.5379028320313 -2430.043701171875 553.9187622070313 C -2451.395751953125 545.6435546875 -2471.750732421875 535.8915405273438 -2490.54296875 524.9336547851563 C -2538.400390625 497.0276794433594 -2576.535888671875 461.2292175292969 -2603.890380859375 418.5326843261719 C -2611.798583984375 406.1889953613281 -2618.896728515625 393.0961303710938 -2624.98828125 379.6178894042969 C -2631.399169921875 365.431884765625 -2636.87109375 350.4286804199219 -2641.251708984375 335.0249938964844 C -2645.844970703125 318.8734436035156 -2649.365234375 301.8350219726563 -2651.71484375 284.3827819824219 C -2654.170654296875 266.1424560546875 -2655.416015625 246.9436798095703 -2655.416015625 227.3195648193359 C -2655.416015625 207.6539001464844 -2654.322509765625 188.4024505615234 -2652.16650390625 170.0998992919922 C -2650.092529296875 152.4950103759766 -2646.979736328125 135.2972259521484 -2642.914306640625 118.9842300415039 C -2639.013427734375 103.33056640625 -2634.1318359375 88.07567596435547 -2628.405517578125 73.64334106445313 C -2622.92529296875 59.831787109375 -2616.52685546875 46.40934371948242 -2609.387939453125 33.74889755249023 C -2602.5771484375 21.67045211791992 -2594.91455078125 9.969897270202637 -2586.61279296875 -1.027547001838684 C -2578.720458984375 -11.48288059234619 -2570.046875 -21.57265853881836 -2560.8330078125 -31.01665878295898 C -2552.108154296875 -39.95954513549805 -2542.677001953125 -48.5507698059082 -2532.8017578125 -56.5517692565918 C -2523.492919921875 -64.09377288818359 -2513.5576171875 -71.29932403564453 -2503.271728515625 -77.96843719482422 C -2484.602294921875 -90.07276916503906 -2464.22900390625 -100.7807693481445 -2442.71728515625 -109.7949905395508 C -2424.277587890625 -117.5218811035156 -2404.9130859375 -124.0494384765625 -2385.16162109375 -129.1961059570313 C -2368.769775390625 -133.4674377441406 -2352.4248046875 -136.721435546875 -2336.580810546875 -138.8675537109375 C -2324.06201171875 -140.5632171630859 -2312.109375 -141.4971008300781 -2302.92431640625 -141.4971008300781 C -2296.578857421875 -141.4971008300781 -2285.79296875 -141.0143280029297 -2270.445068359375 -138.7140960693359 C -2255.6103515625 -136.4908752441406 -2240.26416015625 -133.126220703125 -2224.8330078125 -128.7135467529297 C -2206.4921875 -123.468879699707 -2188.429931640625 -116.8372116088867 -2171.1474609375 -109.0029907226563 C -2151.143310546875 -99.93476867675781 -2132.076171875 -89.19554901123047 -2114.47509765625 -77.08343505859375 C -2072.2265625 -48.00999069213867 -2037.9482421875 -10.84854698181152 -2012.592651367188 33.36856460571289 C -2005.464233398438 45.79945373535156 -1998.953857421875 58.9653434753418 -1993.242309570313 72.50056457519531 C -1987.279174804688 86.63156127929688 -1982.022583007813 101.5543441772461 -1977.618774414063 116.854118347168 C -1973.032592773438 132.7866821289063 -1969.244018554688 149.5691223144531 -1966.358520507813 166.7353363037109 C -1963.3603515625 184.5707855224609 -1961.253784179688 203.3161163330078 -1960.096923828125 222.4506683349609 L -1960.093994140625 222.5012359619141 L -1960.096069335938 222.5518951416016 C -1960.601440429688 234.8863372802734 -1961.5234375 246.8912353515625 -1962.836547851563 258.23291015625 C -1964.307983398438 270.9433288574219 -1966.331665039063 283.3659973144531 -1968.851196289063 295.1558837890625 C -1971.611206054688 308.0706787109375 -1975.06396484375 320.6878967285156 -1979.113647460938 332.6570129394531 C -1983.485595703125 345.5790100097656 -1988.694946289063 358.1665649414063 -1994.596923828125 370.0697937011719 C -2000.903930664063 382.7900085449219 -2008.196655273438 395.1222229003906 -2016.272338867188 406.7239074707031 C -2024.836181640625 419.0270080566406 -2034.537231445313 430.877685546875 -2045.10595703125 441.94677734375 C -2056.246826171875 453.6150207519531 -2068.679443359375 464.7583312988281 -2082.058837890625 475.0673522949219 C -2096.003662109375 485.8118286132813 -2111.380126953125 495.9608459472656 -2127.76611328125 505.2359924316406 C -2127.830078125 505.3759460449219 -2127.917724609375 505.5571594238281 -2128.033203125 505.787109375 C -2128.280029296875 506.2793273925781 -2128.658935546875 507.0055541992188 -2129.159423828125 507.9456787109375 C -2130.1220703125 509.753662109375 -2131.577880859375 512.4352416992188 -2133.48681640625 515.9156494140625 C -2137.035400390625 522.3861083984375 -2142.27880859375 531.8546752929688 -2149.07177734375 544.058349609375 C -2160.511474609375 564.6099243164063 -2176.500732421875 593.2000122070313 -2196.595703125 629.0343627929688 C -2230.809814453125 690.0463256835938 -2265.5341796875 751.7417602539063 -2265.880859375 752.3577880859375 L -2267.75244140625 755.6826782226563 Z"/><path class="k" d="M -2266.75244140625 751.8673706054688 C -2266.75244140625 751.8673706054688 -2127.54638671875 504.5480041503906 -2128.5810546875 504.5480041503906 C -1993.19384765625 428.0697937011719 -1964.89501953125 315.2454528808594 -1961.09521484375 222.5110015869141 C -1980 -90.19998931884766 -2238.7724609375 -140.4971008300781 -2302.92431640625 -140.4971008300781 C -2367.07763671875 -140.4971008300781 -2654.416015625 -94.12187957763672 -2654.416015625 227.3195648193359 C -2654.416015625 548.760986328125 -2325.66259765625 579.739013671875 -2325.66259765625 579.739013671875 C -2325.66259765625 579.739013671875 -2325.66259765625 531.2517700195313 -2325.66259765625 487.7585754394531 C -2328.869140625 488.3182983398438 -2332.37109375 488.595458984375 -2336.1376953125 488.5952758789063 C -2407.261962890625 488.5919799804688 -2571.4228515625 389.6965637207031 -2571.4228515625 227.3195648193359 C -2571.4228515625 56.34345245361328 -2443.5390625 -47.58843612670898 -2302.92431640625 -47.58843612670898 C -2162.30859375 -47.58843612670898 -2050.28857421875 91.61678314208984 -2051.32373046875 217.7024536132813 C -2052.35693359375 343.7879028320313 -2144.18798828125 410.0985717773438 -2144.18798828125 410.0985717773438 L -2266.75244140625 227.3195648193359 L -2266.75244140625 751.8673706054688 M -2268.75244140625 759.4981079101563 L -2268.75244140625 751.8673706054688 L -2268.75244140625 227.3195648193359 L -2268.75244140625 220.7458953857422 L -2265.09130859375 226.2056732177734 L -2143.710205078125 407.2200012207031 C -2141.421142578125 405.4280395507813 -2136.899658203125 401.733642578125 -2131.09814453125 396.2200012207031 C -2126.12939453125 391.4977722167969 -2121.207275390625 386.3847961425781 -2116.468994140625 381.0227966308594 C -2110.548828125 374.3234558105469 -2104.900390625 367.21435546875 -2099.68017578125 359.8930053710938 C -2086.402587890625 341.271240234375 -2075.7822265625 321.179443359375 -2068.113525390625 300.1755676269531 C -2058.533203125 273.9354553222656 -2053.55712890625 246.1819000244141 -2053.32373046875 217.6861267089844 C -2052.78173828125 151.6680145263672 -2083.39013671875 81.06734466552734 -2135.201171875 28.82934188842773 C -2182.797607421875 -19.15965843200684 -2242.363037109375 -45.58843612670898 -2302.92431640625 -45.58843612670898 C -2320.242919921875 -45.58843612670898 -2337.58349609375 -43.98510360717773 -2354.46484375 -40.82287979125977 C -2371.2431640625 -37.67999267578125 -2387.73095703125 -32.96699142456055 -2403.470947265625 -26.81476974487305 C -2419.255615234375 -20.64510345458984 -2434.43994140625 -12.9684362411499 -2448.602294921875 -3.997880458831787 C -2462.93017578125 5.077453136444092 -2476.361083984375 15.57234191894531 -2488.522216796875 27.19534111022949 C -2513.843505859375 51.3961181640625 -2533.65283203125 80.26789855957031 -2547.39990234375 113.0088958740234 C -2562.01318359375 147.8134460449219 -2569.4228515625 186.2731170654297 -2569.4228515625 227.3195648193359 C -2569.4228515625 264.9924621582031 -2560.493408203125 301.4676818847656 -2542.882568359375 335.7319946289063 C -2535.00439453125 351.0603332519531 -2525.341552734375 365.989013671875 -2514.162841796875 380.1033325195313 C -2503.766357421875 393.2298889160156 -2491.973876953125 405.7655639648438 -2479.112548828125 417.3622436523438 C -2455.74560546875 438.4316711425781 -2429.102294921875 456.2152404785156 -2402.063232421875 468.7903442382813 C -2377.376953125 480.271240234375 -2353.964111328125 486.5944519042969 -2336.137451171875 486.5953369140625 C -2332.481689453125 486.5953369140625 -2329.07373046875 486.3237915039063 -2326.006591796875 485.788330078125 L -2323.66259765625 485.3791198730469 L -2323.66259765625 487.7585754394531 L -2323.66259765625 579.739013671875 L -2323.66259765625 581.9363403320313 L -2325.850341796875 581.730224609375 C -2326.062744140625 581.7101440429688 -2331.158447265625 581.2227783203125 -2340.112548828125 579.753662109375 C -2348.3544921875 578.4014282226563 -2361.5361328125 575.9262084960938 -2377.528564453125 571.8131103515625 C -2395.4990234375 567.1913452148438 -2413.289306640625 561.4844360351563 -2430.405029296875 554.8512573242188 C -2451.80615234375 546.5570068359375 -2472.208984375 536.7819213867188 -2491.046630859375 525.7975463867188 C -2539.042236328125 497.8110046386719 -2577.29150390625 461.9033508300781 -2604.732177734375 419.0721130371094 C -2612.66650390625 406.6877746582031 -2619.7880859375 393.552001953125 -2625.8994140625 380.0296630859375 C -2632.330810546875 365.7991333007813 -2637.819580078125 350.7493286132813 -2642.213623046875 335.2985534667969 C -2646.81982421875 319.1012268066406 -2650.349853515625 302.0155639648438 -2652.7060546875 284.5162353515625 C -2655.167724609375 266.2319030761719 -2656.416015625 246.9881134033203 -2656.416015625 227.3195648193359 C -2656.416015625 207.6150054931641 -2655.3203125 188.3241271972656 -2653.15966796875 169.9828948974609 C -2651.08056640625 152.3361206054688 -2647.960205078125 135.0963439941406 -2643.884765625 118.7424545288086 C -2639.97314453125 103.045783996582 -2635.077880859375 87.74812316894531 -2629.3349609375 73.27456665039063 C -2623.83837890625 59.42111968994141 -2617.420166015625 45.95745468139648 -2610.259033203125 33.25778579711914 C -2603.426513671875 21.14067459106445 -2595.7392578125 9.402786254882813 -2587.410888671875 -1.630102634429932 C -2579.4931640625 -12.11888027191162 -2570.7919921875 -22.24088096618652 -2561.548828125 -31.71499061584473 C -2552.796875 -40.685546875 -2543.336669921875 -49.30332565307617 -2533.431396484375 -57.32876968383789 C -2524.09521484375 -64.89288330078125 -2514.131103515625 -72.11932373046875 -2503.815673828125 -78.80743408203125 C -2485.0966796875 -90.94409942626953 -2464.670166015625 -101.6800994873047 -2443.103759765625 -110.7173233032227 C -2424.62060546875 -118.4624328613281 -2405.2109375 -125.0052108764648 -2385.413818359375 -130.1637725830078 C -2368.9833984375 -134.4452209472656 -2352.5986328125 -137.7069854736328 -2336.71484375 -139.8585510253906 C -2324.153076171875 -141.5599975585938 -2312.15283203125 -142.4971008300781 -2302.92431640625 -142.4971008300781 C -2296.544921875 -142.4971008300781 -2285.705810546875 -142.0123291015625 -2270.296630859375 -139.7029876708984 C -2255.41943359375 -137.4734344482422 -2240.03076171875 -134.0995483398438 -2224.55810546875 -129.6749877929688 C -2206.170166015625 -124.416877746582 -2188.061279296875 -117.7682113647461 -2170.734619140625 -109.9137725830078 C -2150.6767578125 -100.8212127685547 -2131.5576171875 -90.05265808105469 -2113.908203125 -77.90721130371094 C -2071.535400390625 -48.74810409545898 -2037.155883789063 -11.47688007354736 -2011.72509765625 32.87112045288086 C -2004.576782226563 45.33700942993164 -1998.048217773438 58.53945159912109 -1992.320922851563 72.11178588867188 C -1986.342529296875 86.27922821044922 -1981.072631835938 101.2396774291992 -1976.65771484375 116.5775604248047 C -1972.061157226563 132.5463409423828 -1968.26416015625 149.3661193847656 -1965.372436523438 166.5695648193359 C -1962.368408203125 184.4397888183594 -1960.257690429688 203.2205657958984 -1959.098876953125 222.3903350830078 L -1959.0927734375 222.4915618896484 L -1959.096801757813 222.5928955078125 C -1959.603271484375 234.9520111083984 -1960.527221679688 246.9816741943359 -1961.843017578125 258.347900390625 C -1963.318115234375 271.0897827148438 -1965.347045898438 283.5441284179688 -1967.873291015625 295.3648986816406 C -1970.641235351563 308.3172302246094 -1974.104370117188 320.9720153808594 -1978.166259765625 332.9775695800781 C -1982.552612304688 345.9417724609375 -1987.779174804688 358.57080078125 -1993.701049804688 370.5140075683594 C -2000.029907226563 383.2782287597656 -2007.347778320313 395.6531066894531 -2015.45166015625 407.2952270507813 C -2024.044677734375 419.6403503417969 -2033.778564453125 431.5312194824219 -2044.382690429688 442.637451171875 C -2055.558349609375 454.3421325683594 -2068.029052734375 465.5196838378906 -2081.44873046875 475.8594665527344 C -2095.352294921875 486.5724182128906 -2110.674072265625 496.6940002441406 -2126.998046875 505.9501342773438 C -2127.040283203125 506.0366516113281 -2127.087158203125 506.131591796875 -2127.13916015625 506.2355651855469 C -2127.389892578125 506.7348937988281 -2127.7724609375 507.4683532714844 -2128.276611328125 508.4155578613281 C -2129.2412109375 510.2272338867188 -2130.69921875 512.9124755859375 -2132.60986328125 516.3965454101563 C -2136.159423828125 522.8687744140625 -2141.404052734375 532.3392333984375 -2148.197998046875 544.5447998046875 C -2159.63818359375 565.0972290039063 -2175.628173828125 593.6881103515625 -2195.723388671875 629.5234375 C -2229.93798828125 690.5361328125 -2264.662841796875 752.2322387695313 -2265.009521484375 752.8483276367188 L -2268.75244140625 759.4981079101563 Z"/></g></g></g></svg>