<svg xmlns="http://www.w3.org/2000/svg" xmlns:xlink="http://www.w3.org/1999/xlink" width="422" height="1373" viewBox="0 0 422 1373"><defs><style>.a,.g,.h{fill:#fff;}.b{clip-path:url(#a);}.c{opacity:0.5;}.d,.e,.f,.j{fill:none;}.d,.e,.f{stroke:#3065c5;stroke-linejoin:bevel;stroke-miterlimit:10;}.d,.e,.f,.g{stroke-width:2px;}.d{stroke-dasharray:6;}.e{stroke-dasharray:1 8;}.f{stroke-dasharray:1 6;}.g{stroke:#2a3795;}.i,.k{stroke:none;}.k{fill:#2a3795;}.l{filter:url(#f);}.m{filter:url(#d);}.n{filter:url(#b);}</style><clipPath id="a"><rect class="a" width="422" height="1373" transform="translate(0 1257)"/></clipPath><filter id="b" x="-788.5" y="159.5" width="1051" height="1050" filterUnits="userSpaceOnUse"><feOffset dy="2" input="SourceAlpha"/><feGaussianBlur stdDeviation="9.5" result="c"/><feFlood flood-color="#fe787e" flood-opacity="0.686"/><feComposite operator="in" in2="c"/><feComposite in="SourceGraphic"/></filter><filter id="d" x="-603.5" y="352.5" width="681" height="681" filterUnits="userSpaceOnUse"><feOffset dy="5" input="SourceAlpha"/><feGaussianBlur stdDeviation="6.5" result="e"/><feFlood flood-color="#fe787e"/><feComposite operator="in" in2="e"/><feComposite in="SourceGraphic"/></filter><filter id="f" x="-970.5" y="-17.5" width="1412" height="1412" filterUnits="userSpaceOnUse"><feOffset dy="2" input="SourceAlpha"/><feGaussianBlur stdDeviation="6.5" result="g"/><feFlood flood-color="#fe787e" flood-opacity="0.6"/><feComposite operator="in" in2="g"/><feComposite in="SourceGraphic"/></filter></defs><g class="b" transform="translate(0 -1257)"><g transform="translate(-1930 74)"><g class="c" transform="translate(979 1183)"><g class="n" transform="matrix(1, 0, 0, 1, 951, 0)"><g class="d" transform="translate(-760 186)"><ellipse class="i" cx="497" cy="496.5" rx="497" ry="496.5"/><ellipse class="j" cx="497" cy="496.5" rx="496" ry="495.5"/></g></g><g class="m" transform="matrix(1, 0, 0, 1, 951, 0)"><g class="e" transform="translate(-584 367)"><circle class="i" cx="321" cy="321" r="321"/><circle class="j" cx="321" cy="321" r="320"/></g></g><g class="l" transform="matrix(1, 0, 0, 1, 951, 0)"><g class="f" transform="translate(-951)"><circle class="i" cx="686.5" cy="686.5" r="686.5"/><circle class="j" cx="686.5" cy="686.5" r="685.5"/></g></g></g><g transform="translate(1318.951 1518.975)"><g class="g" transform="translate(226.049 238.025)"><ellipse class="i" cx="124.5" cy="128.5" rx="124.5" ry="128.5"/><ellipse class="j" cx="124.5" cy="128.5" rx="125.5" ry="129.5"/></g><g class="h" transform="translate(2654.416 140.497)"><path class="i" d="M -2347.7587890625 755.6826782226563 L -2349.63037109375 752.3577880859375 C -2349.97705078125 751.7417602539063 -2384.701416015625 690.0463256835938 -2418.91552734375 629.0343627929688 C -2439.010498046875 593.2000122070313 -2454.999755859375 564.6099243164063 -2466.439453125 544.058349609375 C -2473.232421875 531.8546752929688 -2478.475830078125 522.3861083984375 -2482.0244140625 515.9156494140625 C -2483.933349609375 512.4352416992188 -2485.38916015625 509.753662109375 -2486.351806640625 507.9456787109375 C -2486.852294921875 507.0055541992188 -2487.231201171875 506.2793273925781 -2487.47802734375 505.787109375 C -2487.593505859375 505.5571594238281 -2487.68115234375 505.3759460449219 -2487.7451171875 505.2359924316406 C -2504.131103515625 495.9608459472656 -2519.507568359375 485.8118286132813 -2533.452392578125 475.0673522949219 C -2546.831787109375 464.7583312988281 -2559.264404296875 453.6150207519531 -2570.4052734375 441.94677734375 C -2580.973876953125 430.877685546875 -2590.675048828125 419.0270080566406 -2599.239013671875 406.7239074707031 C -2607.314697265625 395.1222229003906 -2614.607177734375 382.7900085449219 -2620.914306640625 370.0697937011719 C -2626.816162109375 358.1665649414063 -2632.025634765625 345.5790100097656 -2636.397705078125 332.6570129394531 C -2640.447265625 320.6878967285156 -2643.89990234375 308.0706787109375 -2646.66015625 295.1558837890625 C -2649.1796875 283.3659973144531 -2651.203369140625 270.9433288574219 -2652.6748046875 258.23291015625 C -2653.98779296875 246.8912353515625 -2654.90966796875 234.8863372802734 -2655.4150390625 222.5518951416016 L -2655.417236328125 222.5012359619141 L -2655.4140625 222.4506683349609 C -2654.25732421875 203.3161163330078 -2652.150634765625 184.5707855224609 -2649.152587890625 166.7353363037109 C -2646.26708984375 149.5691223144531 -2642.478515625 132.7866821289063 -2637.892578125 116.854118347168 C -2633.488525390625 101.5543441772461 -2628.23193359375 86.63156127929688 -2622.268798828125 72.50056457519531 C -2616.557373046875 58.9653434753418 -2610.046875 45.79945373535156 -2602.91845703125 33.36856460571289 C -2577.56298828125 -10.84854698181152 -2543.28466796875 -48.00999069213867 -2501.035888671875 -77.08343505859375 C -2483.43505859375 -89.19554901123047 -2464.367919921875 -99.93476867675781 -2444.36376953125 -109.0029907226563 C -2427.081298828125 -116.8372116088867 -2409.01904296875 -123.468879699707 -2390.67822265625 -128.7135467529297 C -2375.2470703125 -133.126220703125 -2359.90087890625 -136.4908752441406 -2345.066162109375 -138.7140960693359 C -2329.71826171875 -141.0143280029297 -2318.932373046875 -141.4971008300781 -2312.5869140625 -141.4971008300781 C -2303.40185546875 -141.4971008300781 -2291.44921875 -140.5632171630859 -2278.930419921875 -138.8675537109375 C -2263.08642578125 -136.721435546875 -2246.741455078125 -133.4674377441406 -2230.349609375 -129.1961059570313 C -2210.59814453125 -124.0494384765625 -2191.233642578125 -117.5218811035156 -2172.7939453125 -109.7949905395508 C -2151.2822265625 -100.7807693481445 -2130.908935546875 -90.07276916503906 -2112.239501953125 -77.96843719482422 C -2101.95361328125 -71.29932403564453 -2092.01806640625 -64.09377288818359 -2082.70947265625 -56.5517692565918 C -2072.833984375 -48.5507698059082 -2063.403076171875 -39.95954513549805 -2054.67822265625 -31.01665878295898 C -2045.464233398438 -21.57265853881836 -2036.790771484375 -11.48288059234619 -2028.898315429688 -1.027547001838684 C -2020.596557617188 9.969897270202637 -2012.933959960938 21.67045211791992 -2006.123168945313 33.74889755249023 C -1998.984130859375 46.40934371948242 -1992.585693359375 59.831787109375 -1987.105590820313 73.64334106445313 C -1981.379150390625 88.07567596435547 -1976.49755859375 103.33056640625 -1972.5966796875 118.9842300415039 C -1968.531494140625 135.2972259521484 -1965.418579101563 152.4950103759766 -1963.344604492188 170.0998992919922 C -1961.1884765625 188.4024505615234 -1960.09521484375 207.6539001464844 -1960.09521484375 227.3195648193359 C -1960.09521484375 246.9436798095703 -1961.34033203125 266.1424560546875 -1963.796142578125 284.3827819824219 C -1966.145874023438 301.8350219726563 -1969.666137695313 318.8734436035156 -1974.259399414063 335.0249938964844 C -1978.639892578125 350.4286804199219 -1984.11181640625 365.431884765625 -1990.52294921875 379.6178894042969 C -1996.6142578125 393.0961303710938 -2003.712646484375 406.1889953613281 -2011.620849609375 418.5326843261719 C -2038.975341796875 461.2292175292969 -2077.11083984375 497.0276794433594 -2124.96826171875 524.9336547851563 C -2143.760498046875 535.8915405273438 -2164.115478515625 545.6435546875 -2185.467529296875 553.9187622070313 C -2202.546630859375 560.5379028320313 -2220.299072265625 566.2325439453125 -2238.23193359375 570.8446655273438 C -2254.1884765625 574.9485473632813 -2267.338623046875 577.4180297851563 -2275.560546875 578.7669067382813 C -2284.480712890625 580.23046875 -2289.703125 580.7296752929688 -2289.7548828125 580.7345581054688 L -2290.8486328125 580.837646484375 L -2290.8486328125 579.739013671875 L -2290.8486328125 487.7585754394531 L -2290.8486328125 486.5689086914063 L -2289.676513671875 486.7734680175781 C -2286.552734375 487.3187866210938 -2283.086181640625 487.5953369140625 -2279.37353515625 487.5953369140625 C -2261.40478515625 487.5953369140625 -2237.84228515625 481.2394409179688 -2213.0263671875 469.6984558105469 C -2185.898193359375 457.0821228027344 -2159.169189453125 439.2417907714844 -2135.72900390625 418.1061096191406 C -2122.826416015625 406.4721069335938 -2110.99560546875 393.8953552246094 -2100.564453125 380.7250061035156 C -2089.345458984375 366.5596618652344 -2079.647216796875 351.5757751464844 -2071.7392578125 336.1895751953125 C -2054.05517578125 301.7822265625 -2045.08837890625 265.1530151367188 -2045.08837890625 227.3195648193359 C -2045.08837890625 186.1394500732422 -2052.524169921875 147.549560546875 -2067.189453125 112.6217880249023 C -2080.98974609375 79.75345611572266 -2100.876953125 50.76856231689453 -2126.298095703125 26.47245216369629 C -2138.5068359375 14.80389785766602 -2151.990478515625 4.267897605895996 -2166.373779296875 -4.842658042907715 C -2180.590087890625 -13.84743595123291 -2195.832275390625 -21.55321311950684 -2211.67626953125 -27.74621391296387 C -2227.47412109375 -33.92110443115234 -2244.022705078125 -38.65143585205078 -2260.862060546875 -41.80577087402344 C -2277.80419921875 -44.97932434082031 -2295.206787109375 -46.58843612670898 -2312.5869140625 -46.58843612670898 C -2373.4169921875 -46.58843612670898 -2433.234375 -20.05465888977051 -2481.020263671875 28.12512016296387 C -2533.014892578125 80.54845428466797 -2563.731689453125 151.4153442382813 -2563.1875 217.6942291259766 C -2562.952880859375 246.3391265869141 -2557.94482421875 274.2371215820313 -2548.302490234375 300.6133422851563 C -2540.587890625 321.7159118652344 -2529.90625 341.8988952636719 -2516.553955078125 360.6015625 C -2511.30810546875 367.9495544433594 -2505.632568359375 375.0836791992188 -2499.684814453125 381.8057861328125 C -2494.92724609375 387.1825561523438 -2489.986572265625 392.3087768554688 -2484.99951171875 397.0421142578125 C -2478.385498046875 403.3198547363281 -2473.4462890625 407.2303466796875 -2471.566650390625 408.6660766601563 L -2349.58935546875 226.7626800537109 L -2347.7587890625 224.0327911376953 L -2347.7587890625 227.3195648193359 L -2347.7587890625 751.8673706054688 L -2347.7587890625 755.6826782226563 Z"/><path class="k" d="M -2348.7587890625 751.8673706054688 L -2348.7587890625 227.3195648193359 L -2471.3232421875 410.0985717773438 C -2471.3232421875 410.0985717773438 -2563.154296875 343.7879028320313 -2564.1875 217.7024536132813 C -2565.22265625 91.61678314208984 -2453.20263671875 -47.58843612670898 -2312.5869140625 -47.58843612670898 C -2171.97216796875 -47.58843612670898 -2044.08837890625 56.34345245361328 -2044.08837890625 227.3195648193359 C -2044.08837890625 389.6965637207031 -2208.249267578125 488.5952758789063 -2279.37353515625 488.5952758789063 C -2283.14013671875 488.5952758789063 -2286.64208984375 488.3182983398438 -2289.8486328125 487.7585754394531 C -2289.8486328125 531.2517700195313 -2289.8486328125 579.739013671875 -2289.8486328125 579.739013671875 C -2289.8486328125 579.739013671875 -1961.09521484375 548.760986328125 -1961.09521484375 227.3195648193359 C -1961.09521484375 -94.12187957763672 -2248.43359375 -140.4971008300781 -2312.5869140625 -140.4971008300781 C -2376.73876953125 -140.4971008300781 -2635.51123046875 -90.19998931884766 -2654.416015625 222.5110015869141 C -2650.6162109375 315.2454528808594 -2622.3173828125 428.0697937011719 -2486.93017578125 504.5480041503906 C -2487.96484375 504.5480041503906 -2348.7587890625 751.8673706054688 -2348.7587890625 751.8673706054688 M -2346.7587890625 759.4981079101563 L -2350.501708984375 752.8483276367188 C -2350.848388671875 752.2322387695313 -2385.5732421875 690.5361328125 -2419.787841796875 629.5234375 C -2439.883056640625 593.6881103515625 -2455.873046875 565.0972290039063 -2467.313232421875 544.5447998046875 C -2474.107177734375 532.3392333984375 -2479.351806640625 522.8687744140625 -2482.9013671875 516.3965454101563 C -2484.81201171875 512.9124755859375 -2486.27001953125 510.2272338867188 -2487.234619140625 508.4155578613281 C -2487.73876953125 507.4683532714844 -2488.121337890625 506.7348937988281 -2488.3720703125 506.2355651855469 C -2488.424072265625 506.131591796875 -2488.470947265625 506.0366516113281 -2488.51318359375 505.9501342773438 C -2504.837158203125 496.6940002441406 -2520.158935546875 486.5724182128906 -2534.0625 475.8594665527344 C -2547.482177734375 465.5196838378906 -2559.952880859375 454.3421325683594 -2571.12841796875 442.637451171875 C -2581.732666015625 431.5312194824219 -2591.466552734375 419.6403503417969 -2600.0595703125 407.2952270507813 C -2608.163330078125 395.6531066894531 -2615.481201171875 383.2782287597656 -2621.81005859375 370.5140075683594 C -2627.73193359375 358.57080078125 -2632.95849609375 345.9417724609375 -2637.3447265625 332.9775695800781 C -2641.40673828125 320.9720153808594 -2644.869873046875 308.3172302246094 -2647.637939453125 295.3648986816406 C -2650.1640625 283.5441284179688 -2652.19287109375 271.0897827148438 -2653.66796875 258.347900390625 C -2654.98388671875 246.9816741943359 -2655.907958984375 234.9520111083984 -2656.414306640625 222.5928955078125 L -2656.41845703125 222.4915618896484 L -2656.412353515625 222.3903350830078 C -2655.25341796875 203.2205657958984 -2653.142822265625 184.4397888183594 -2650.138671875 166.5695648193359 C -2647.2470703125 149.3661193847656 -2643.449951171875 132.5463409423828 -2638.853271484375 116.5775604248047 C -2634.4384765625 101.2396774291992 -2629.168701171875 86.27922821044922 -2623.190185546875 72.11178588867188 C -2617.462890625 58.53945159912109 -2610.934326171875 45.33700942993164 -2603.7861328125 32.87112045288086 C -2578.355224609375 -11.47688007354736 -2543.975830078125 -48.74810409545898 -2501.602783203125 -77.90721130371094 C -2483.95361328125 -90.05265808105469 -2464.83447265625 -100.8212127685547 -2444.776611328125 -109.9137725830078 C -2427.44970703125 -117.7682113647461 -2409.341064453125 -124.416877746582 -2390.953125 -129.6749877929688 C -2375.48046875 -134.0995483398438 -2360.091796875 -137.4734344482422 -2345.214599609375 -139.7029876708984 C -2329.805419921875 -142.0123291015625 -2318.96630859375 -142.4971008300781 -2312.5869140625 -142.4971008300781 C -2303.3583984375 -142.4971008300781 -2291.35791015625 -141.5599975585938 -2278.79638671875 -139.8585510253906 C -2262.91259765625 -137.7069854736328 -2246.52783203125 -134.4452209472656 -2230.097412109375 -130.1637725830078 C -2210.30029296875 -125.0052108764648 -2190.890625 -118.4624328613281 -2172.407470703125 -110.7173233032227 C -2150.841064453125 -101.6800994873047 -2130.41455078125 -90.94409942626953 -2111.695556640625 -78.80743408203125 C -2101.380126953125 -72.11932373046875 -2091.416015625 -64.89288330078125 -2082.079833984375 -57.32876968383789 C -2072.17431640625 -49.30332565307617 -2062.71435546875 -40.6856575012207 -2053.96240234375 -31.71499061584473 C -2044.719116210938 -22.24088096618652 -2036.017822265625 -12.11888027191162 -2028.100219726563 -1.630102634429932 C -2019.771850585938 9.402675628662109 -2012.084594726563 21.14067459106445 -2005.252075195313 33.25778579711914 C -1998.090942382813 45.95745468139648 -1991.672973632813 59.42111968994141 -1986.176147460938 73.27456665039063 C -1980.433227539063 87.74812316894531 -1975.5380859375 103.045783996582 -1971.626342773438 118.7424545288086 C -1967.550903320313 135.0963439941406 -1964.430541992188 152.3361206054688 -1962.3515625 169.9828948974609 C -1960.190673828125 188.3241271972656 -1959.09521484375 207.6150054931641 -1959.09521484375 227.3195648193359 C -1959.09521484375 246.9881134033203 -1960.343383789063 266.2319030761719 -1962.805053710938 284.5162353515625 C -1965.1611328125 302.0155639648438 -1968.69140625 319.1012268066406 -1973.297607421875 335.2985534667969 C -1977.691528320313 350.7493286132813 -1983.180419921875 365.7991333007813 -1989.611694335938 380.0296630859375 C -1995.722900390625 393.552001953125 -2002.844604492188 406.6877746582031 -2010.77880859375 419.0721130371094 C -2038.219482421875 461.9033508300781 -2076.468994140625 497.8110046386719 -2124.46435546875 525.7975463867188 C -2143.30224609375 536.7819213867188 -2163.704833984375 546.5570068359375 -2185.106201171875 554.8512573242188 C -2202.221923828125 561.4844360351563 -2220.011962890625 567.1913452148438 -2237.982666015625 571.8131103515625 C -2253.97509765625 575.9262084960938 -2267.15673828125 578.4014282226563 -2275.398681640625 579.753662109375 C -2284.352783203125 581.2227783203125 -2289.448486328125 581.7101440429688 -2289.660888671875 581.730224609375 L -2291.8486328125 581.9363403320313 L -2291.8486328125 579.739013671875 L -2291.8486328125 487.7585754394531 L -2291.8486328125 485.3791198730469 L -2289.504638671875 485.788330078125 C -2286.4375 486.3237915039063 -2283.02880859375 486.5953369140625 -2279.37353515625 486.5953369140625 C -2261.54736328125 486.5953369140625 -2238.134521484375 480.2725524902344 -2213.447998046875 468.7917785644531 C -2186.4091796875 456.2168884277344 -2159.765625 438.4332275390625 -2136.398681640625 417.3634643554688 C -2123.53759765625 405.7667846679688 -2111.744873046875 393.2308959960938 -2101.348388671875 380.1042175292969 C -2090.169677734375 365.9896850585938 -2080.5068359375 351.0608825683594 -2072.628662109375 335.7324523925781 C -2055.017822265625 301.4678955078125 -2046.08837890625 264.9924621582031 -2046.08837890625 227.3195648193359 C -2046.08837890625 186.2731170654297 -2053.498046875 147.8134460449219 -2068.111328125 113.0088958740234 C -2081.8583984375 80.26789855957031 -2101.667724609375 51.3961181640625 -2126.989013671875 27.19534111022949 C -2139.150146484375 15.57234191894531 -2152.5810546875 5.077453136444092 -2166.908935546875 -3.997880458831787 C -2181.0712890625 -12.9684362411499 -2196.255615234375 -20.64510345458984 -2212.040283203125 -26.81476974487305 C -2227.7802734375 -32.96699142456055 -2244.26806640625 -37.67999267578125 -2261.04638671875 -40.82287979125977 C -2277.927734375 -43.98510360717773 -2295.268310546875 -45.58843612670898 -2312.5869140625 -45.58843612670898 C -2373.148193359375 -45.58843612670898 -2432.713623046875 -19.15965843200684 -2480.31005859375 28.82934188842773 C -2532.12109375 81.06734466552734 -2562.7294921875 151.6680145263672 -2562.1875 217.6860046386719 C -2561.95361328125 246.2162322998047 -2556.966064453125 274.00146484375 -2547.36328125 300.2698974609375 C -2539.6796875 321.2879943847656 -2529.0400390625 341.3910217285156 -2515.740234375 360.0204467773438 C -2510.514404296875 367.34033203125 -2504.860595703125 374.447021484375 -2498.935791015625 381.1431274414063 C -2494.197509765625 386.4982299804688 -2489.277099609375 391.6033325195313 -2484.311279296875 396.3167724609375 C -2478.547607421875 401.7873229980469 -2474.073486328125 405.4424133300781 -2471.801513671875 407.2205200195313 L -2350.419921875 226.2056732177734 L -2346.7587890625 220.7458953857422 L -2346.7587890625 227.3195648193359 L -2346.7587890625 751.8673706054688 L -2346.7587890625 759.4981079101563 Z"/></g></g></g></g></svg>